<svg width="352" height="415" viewBox="0 0 352 415" fill="none" xmlns="http://www.w3.org/2000/svg">
    <path d="M75.8511 325.01C-8.32905 316.026 14.5453 235.369 59.5534 188.4C84.228 160.37 56.0261 124.453 86.6206 89.74C117.215 55.0274 144.171 121.731 192.25 69.116C240.33 16.5009 334.245 88.4736 314.117 143.093C293.989 197.713 317.657 189.856 337.036 260.054C356.414 330.251 263.874 399.149 213.069 352.91C162.264 306.671 166.977 334.736 75.8511 325.01Z" stroke="url(#paint0_linear_268_983)"/>
    <path d="M180.879 231.787C172.695 231.354 165.494 215.431 174.062 208.29C181.909 201.751 182.182 192.048 186.426 187.241C197.598 174.584 198.289 181.133 207.246 177.037C218.146 172.054 239.906 176.205 232.625 194.671C226.636 209.859 235.804 208.223 234.588 220.885C233.373 233.546 222.724 244.25 208.076 238.474C202.575 236.305 194.51 232.51 180.879 231.787Z" stroke="url(#paint1_linear_268_983)"/>
    <path d="M85.0299 316.391C7.75853 308.184 27.8988 233.412 69.5942 190.063C92.7389 163.987 67.1257 130.453 95.3246 98.4594C124.154 65.7519 148.721 126.987 193.244 78.7827C237.944 30.4978 325.299 96.3049 306.339 147.638C287.497 198.673 309.847 191.382 327.353 256.348C344.86 321.315 259.764 384.923 212.246 342.362C165.559 300.13 169.111 325.299 85.0299 316.391Z" stroke="url(#paint2_linear_268_983)"/>
    <path d="M94.209 307.773C23.8463 300.343 41.2525 231.456 79.6352 191.728C101.25 167.606 78.2254 136.455 104.029 107.18C131.092 76.4774 153.272 132.244 194.239 88.4504C235.558 44.4956 316.354 104.137 298.562 152.183C281.005 199.633 302.037 192.908 317.671 252.644C333.305 312.381 255.654 370.698 211.423 331.816C168.855 293.59 171.245 315.862 94.209 307.773Z" stroke="url(#paint3_linear_268_983)"/>
    <path d="M103.387 299.154C39.9335 292.501 54.6055 229.5 89.6755 193.392C109.761 171.224 89.3245 142.456 112.733 115.899C138.03 87.202 157.823 137.5 195.232 98.1172C233.172 58.4926 307.408 111.969 290.784 156.728C274.512 200.593 294.226 194.434 307.988 248.939C321.75 303.445 251.543 356.472 210.599 321.268C172.15 287.049 173.379 306.425 103.387 299.154Z" stroke="url(#paint4_linear_268_983)"/>
    <path d="M112.567 290.536C56.022 284.661 67.96 227.544 99.7172 195.057C118.272 174.842 100.425 148.458 121.437 124.62C144.97 97.9276 162.374 142.757 196.228 107.785C230.787 72.4905 298.464 119.801 283.007 161.274C268.021 201.554 286.417 195.96 298.306 245.235C310.196 294.51 247.434 342.247 209.777 310.722C175.447 280.509 175.513 296.988 112.567 290.536Z" stroke="url(#paint5_linear_268_983)"/>
    <path d="M122 282.017C72.364 276.919 81.5679 225.687 110.012 196.821C127.038 178.56 111.779 154.559 130.396 133.439C152.162 108.752 167.179 148.112 197.476 117.552C228.656 86.5874 289.773 127.732 275.484 165.918C261.783 202.614 278.861 197.586 288.878 241.63C298.896 285.675 243.578 328.121 209.209 300.274C178.997 274.067 177.902 287.65 122 282.017Z" stroke="url(#paint6_linear_268_983)"/>
    <path d="M131.734 273.617C89.0058 269.296 95.4756 223.949 120.607 198.704C136.103 182.396 123.433 160.778 139.654 142.377C159.655 119.695 172.284 153.587 199.024 127.437C226.824 100.803 281.382 135.782 268.261 170.682C255.846 203.793 271.605 199.33 279.75 238.144C287.895 276.958 240.023 314.114 208.94 289.946C182.847 267.745 180.59 278.432 131.734 273.617Z" stroke="url(#paint7_linear_268_983)"/>
    <path d="M141.484 265.222C105.665 261.679 109.4 222.217 131.219 200.592C145.185 186.238 135.103 167.003 148.929 151.321C167.165 130.644 177.406 159.067 200.59 137.328C225.01 115.024 273.008 143.838 261.055 175.451C249.925 204.977 264.366 201.08 270.639 234.663C276.912 268.247 236.484 300.112 208.688 279.622C186.713 261.428 183.294 269.218 141.484 265.222Z" stroke="url(#paint8_linear_268_983)"/>
    <path d="M151.257 256.836C122.346 254.07 123.348 220.493 141.854 202.49C154.29 190.089 146.797 173.238 158.228 160.274C174.698 141.602 182.551 164.556 202.178 147.229C223.218 129.255 264.657 151.903 253.872 180.229C244.027 206.171 257.15 202.838 261.55 231.191C265.951 259.544 232.968 286.119 208.459 269.308C190.603 255.12 186.023 260.014 151.257 256.836Z" stroke="url(#paint9_linear_268_983)"/>
    <path d="M161.067 248.465C139.066 246.476 137.333 218.784 152.527 204.401C163.433 193.954 158.529 179.486 167.564 169.241C182.268 152.574 187.734 170.06 203.804 157.143C221.464 143.499 256.343 159.981 246.726 185.021C238.167 207.378 249.971 204.611 252.5 227.734C255.028 250.856 229.49 272.141 208.268 259.008C194.531 248.826 188.788 250.824 161.067 248.465Z" stroke="url(#paint10_linear_268_983)"/>
    <path d="M170.931 240.112C155.838 238.9 151.371 217.093 163.252 206.331C172.628 197.838 170.313 185.753 176.952 178.227C189.891 163.565 192.969 175.582 205.483 167.076C219.763 157.762 248.082 168.079 239.633 189.832C232.359 208.604 242.845 206.403 243.502 224.295C244.158 242.187 226.064 258.181 208.13 248.727C198.511 242.551 191.606 241.653 170.931 240.112Z" stroke="url(#paint11_linear_268_983)"/>
    <defs>
        <linearGradient id="paint0_linear_268_983" x1="58.9777" y1="149.573" x2="351.135" y2="264.773" gradientUnits="userSpaceOnUse">
            <stop stop-color="#EBF3FF" stop-opacity="0.37"/>
            <stop offset="1" stop-color="#C2D5FF"/>
        </linearGradient>
        <linearGradient id="paint1_linear_268_983" x1="178.126" y1="194.469" x2="236.911" y2="217.649" gradientUnits="userSpaceOnUse">
            <stop stop-color="#EBF3FF" stop-opacity="0.37"/>
            <stop offset="1" stop-color="#C2D5FF"/>
        </linearGradient>
        <linearGradient id="paint2_linear_268_983" x1="69.8051" y1="153.666" x2="340.372" y2="260.352" gradientUnits="userSpaceOnUse">
            <stop stop-color="#EBF3FF" stop-opacity="0.37"/>
            <stop offset="1" stop-color="#C2D5FF"/>
        </linearGradient>
        <linearGradient id="paint3_linear_268_983" x1="80.6327" y1="157.759" x2="329.609" y2="255.932" gradientUnits="userSpaceOnUse">
            <stop stop-color="#EBF3FF" stop-opacity="0.37"/>
            <stop offset="1" stop-color="#C2D5FF"/>
        </linearGradient>
        <linearGradient id="paint4_linear_268_983" x1="91.4596" y1="161.85" x2="318.846" y2="251.51" gradientUnits="userSpaceOnUse">
            <stop stop-color="#EBF3FF" stop-opacity="0.37"/>
            <stop offset="1" stop-color="#C2D5FF"/>
        </linearGradient>
        <linearGradient id="paint5_linear_268_983" x1="102.288" y1="165.941" x2="308.085" y2="247.089" gradientUnits="userSpaceOnUse">
            <stop stop-color="#EBF3FF" stop-opacity="0.37"/>
            <stop offset="1" stop-color="#C2D5FF"/>
        </linearGradient>
        <linearGradient id="paint6_linear_268_983" x1="113.116" y1="170.031" x2="297.578" y2="242.765" gradientUnits="userSpaceOnUse">
            <stop stop-color="#EBF3FF" stop-opacity="0.37"/>
            <stop offset="1" stop-color="#C2D5FF"/>
        </linearGradient>
        <linearGradient id="paint7_linear_268_983" x1="123.946" y1="174.12" x2="287.372" y2="238.56" gradientUnits="userSpaceOnUse">
            <stop stop-color="#EBF3FF" stop-opacity="0.37"/>
            <stop offset="1" stop-color="#C2D5FF"/>
        </linearGradient>
        <linearGradient id="paint8_linear_268_983" x1="134.776" y1="178.205" x2="277.185" y2="234.358" gradientUnits="userSpaceOnUse">
            <stop stop-color="#EBF3FF" stop-opacity="0.37"/>
            <stop offset="1" stop-color="#C2D5FF"/>
        </linearGradient>
        <linearGradient id="paint9_linear_268_983" x1="145.606" y1="182.287" x2="267.024" y2="230.163" gradientUnits="userSpaceOnUse">
            <stop stop-color="#EBF3FF" stop-opacity="0.37"/>
            <stop offset="1" stop-color="#C2D5FF"/>
        </linearGradient>
        <linearGradient id="paint10_linear_268_983" x1="156.441" y1="186.364" x2="256.906" y2="225.978" gradientUnits="userSpaceOnUse">
            <stop stop-color="#EBF3FF" stop-opacity="0.37"/>
            <stop offset="1" stop-color="#C2D5FF"/>
        </linearGradient>
        <linearGradient id="paint11_linear_268_983" x1="167.279" y1="190.429" x2="246.851" y2="221.805" gradientUnits="userSpaceOnUse">
            <stop stop-color="#EBF3FF" stop-opacity="0.37"/>
            <stop offset="1" stop-color="#C2D5FF"/>
        </linearGradient>
    </defs>
</svg>
