<svg width="142" height="197" viewBox="0 0 142 197" fill="none" xmlns="http://www.w3.org/2000/svg">
    <path d="M16.3901 9.92155C-15.1987 -51.3006 49.8488 -71.8738 101.917 -62.3232C132.012 -58.1082 143.789 -93.3537 181.075 -88.1086C218.361 -82.8636 185.107 -34.6795 242.387 -25.5698C299.667 -16.4602 292.815 79.5811 246.689 90.3617C200.563 101.142 216.5 113.707 177.479 158.307C138.458 202.907 50.2058 170.877 58.8751 115.652C67.5444 60.4259 50.5854 76.1955 16.3901 9.92155Z" stroke="url(#paint0_linear_105_1010)"/>
    <path d="M126.762 39.5439C123.392 33.7887 130.987 21.7664 139.676 24.3907C147.633 26.7938 154.348 22.635 159.515 23.366C173.118 25.2906 168.977 28.6919 175.771 32.9445C184.038 38.1194 190.96 54.7636 175.152 58.0847C162.151 60.8162 167.368 66.3135 158.22 71.1568C149.073 76 137.031 73.557 134.397 61.018C133.408 56.3093 132.375 49.1293 126.762 39.5439Z" stroke="url(#paint1_linear_105_1010)"/>
    <path d="M26.3564 12.2987C-2.66704 -43.881 57.1575 -63.6769 105.282 -54.7559C133.364 -50.7056 144.681 -83.1251 179.047 -78.2904C214.18 -73.3472 183.573 -29.2343 236.263 -20.5662C289.087 -11.8142 283.488 77.0091 240.118 87.1116C197.004 97.1604 211.965 109.082 175.661 150.068C139.356 191.054 58.0314 161.714 65.6732 110.369C73.4644 59.7358 57.9533 73.4192 26.3564 12.2987Z" stroke="url(#paint2_linear_105_1010)"/>
    <path d="M36.3227 14.677C9.86469 -36.4603 64.4662 -55.4788 108.648 -47.1875C134.717 -43.3019 145.574 -72.8954 177.02 -68.471C210 -63.8297 182.039 -23.7879 230.14 -15.5613C278.508 -7.1671 274.161 74.4384 233.547 83.8627C193.444 93.1798 207.432 104.459 173.842 141.831C140.253 179.202 65.8572 152.552 72.4713 105.088C79.3845 59.0469 65.3212 70.6439 36.3227 14.677Z" stroke="url(#paint3_linear_105_1010)"/>
    <path d="M46.2892 17.0545C22.3965 -29.0403 71.7751 -47.2815 112.013 -39.6198C136.07 -35.899 146.466 -62.6663 174.992 -58.6524C205.82 -54.3129 180.505 -18.3423 224.016 -10.5573C267.929 -2.52076 264.834 71.8668 226.977 80.613C189.885 89.1983 202.898 99.8352 172.024 133.593C141.151 167.35 73.6831 143.389 79.2696 99.8056C85.3048 58.3573 72.6892 67.8679 46.2892 17.0545Z" stroke="url(#paint4_linear_105_1010)"/>
    <path d="M56.2558 19.4328C34.9285 -21.6196 79.084 -39.0833 115.378 -32.0514C137.423 -28.4952 147.359 -52.4365 172.965 -48.8329C201.639 -44.7953 178.972 -12.8959 217.893 -5.55243C257.35 2.12639 255.507 69.296 220.406 77.3641C186.326 85.2177 198.364 95.2121 170.206 125.355C142.048 155.498 81.5091 134.227 86.068 94.5243C91.2251 57.6684 80.0574 65.0928 56.2558 19.4328Z" stroke="url(#paint5_linear_105_1010)"/>
    <path d="M66.2676 22.0281C47.5057 -13.9818 86.4382 -30.6683 118.789 -24.266C138.821 -20.8745 148.297 -41.9898 170.983 -38.7965C197.504 -35.0608 177.484 -7.23253 211.815 -0.330619C246.816 6.9905 246.226 66.9422 213.881 74.3321C182.812 81.454 193.875 90.806 168.433 117.335C142.991 143.864 89.3803 125.282 92.9116 89.4599C97.1907 57.1965 87.4708 62.5345 66.2676 22.0281Z" stroke="url(#paint6_linear_105_1010)"/>
    <path d="M76.334 24.8799C60.1374 -6.08759 93.8469 -21.9966 122.254 -16.224C140.273 -12.9973 149.289 -31.2865 169.056 -28.5036C193.424 -25.0697 176.05 -1.31263 205.792 5.14774C236.337 12.1112 236.999 64.8449 207.41 71.5567C179.352 77.9469 189.441 86.6565 166.715 109.571C143.989 132.486 97.3061 116.594 99.8098 84.6521C103.211 56.9811 94.9387 60.2328 76.334 24.8799Z" stroke="url(#paint7_linear_105_1010)"/>
    <path d="M86.4036 27.746C72.7723 1.82102 101.259 -13.3107 125.722 -8.16773C141.729 -5.10574 150.285 -20.5689 167.131 -18.1963C189.346 -15.0643 174.619 4.62162 199.771 10.6404C225.861 17.2461 227.775 62.762 200.942 68.7957C175.896 74.4541 185.011 82.5212 165 101.821C144.99 121.122 105.235 107.92 106.711 79.8586C109.234 56.7801 102.41 57.9455 86.4036 27.746Z" stroke="url(#paint8_linear_105_1010)"/>
    <path d="M96.4779 30.6322C85.412 9.7496 108.676 -4.60474 129.195 -0.0914541C143.19 2.80581 151.285 -9.83124 165.212 -7.8691C185.274 -5.03895 173.193 10.5758 193.756 16.1531C215.39 22.4011 218.556 60.6991 194.48 66.0546C172.444 70.9813 180.585 78.4059 163.29 94.092C145.995 109.778 113.169 99.2659 113.617 75.0852C115.262 56.5991 109.886 55.6781 96.4779 30.6322Z" stroke="url(#paint9_linear_105_1010)"/>
    <path d="M106.559 33.5494C98.0586 17.7093 116.099 4.13231 132.675 8.01592C144.657 10.7485 152.292 0.937475 163.299 2.48925C181.208 5.01754 171.774 16.5612 187.747 21.6969C204.926 27.5872 209.344 58.6672 188.024 63.3446C169 67.5396 176.166 74.3218 161.586 86.3935C147.007 98.4653 121.109 90.6429 120.53 70.3428C121.297 56.4491 117.369 53.4418 106.559 33.5494Z" stroke="url(#paint10_linear_105_1010)"/>
    <path d="M116.651 36.5108C110.716 25.7132 123.534 12.9136 136.167 16.1675C146.136 18.7354 153.311 11.7504 161.398 12.8918C177.154 15.1183 170.367 22.5907 181.75 27.2849C194.472 32.8175 200.143 56.6796 181.579 60.6789C165.566 64.1421 171.757 70.2818 159.894 78.7394C148.031 87.1969 129.061 82.0642 127.454 65.6446C127.343 56.3434 124.862 51.2498 116.651 36.5108Z" stroke="url(#paint11_linear_105_1010)"/>
    <defs>
        <linearGradient id="paint0_linear_105_1010" x1="128.041" y1="-80.0997" x2="180.585" y2="170" gradientUnits="userSpaceOnUse">
            <stop stop-color="#E9EFFF"/>
            <stop offset="1" stop-color="#C7D8FF"/>
        </linearGradient>
        <linearGradient id="paint1_linear_105_1010" x1="150.886" y1="20.9631" x2="161.459" y2="71.2858" gradientUnits="userSpaceOnUse">
            <stop stop-color="#E9EFFF"/>
            <stop offset="1" stop-color="#C7D8FF"/>
        </linearGradient>
        <linearGradient id="paint2_linear_105_1010" x1="130.108" y1="-70.9105" x2="178.77" y2="160.707" gradientUnits="userSpaceOnUse">
            <stop stop-color="#E9EFFF"/>
            <stop offset="1" stop-color="#C7D8FF"/>
        </linearGradient>
        <linearGradient id="paint3_linear_105_1010" x1="132.176" y1="-61.7204" x2="176.954" y2="151.415" gradientUnits="userSpaceOnUse">
            <stop stop-color="#E9EFFF"/>
            <stop offset="1" stop-color="#C7D8FF"/>
        </linearGradient>
        <linearGradient id="paint4_linear_105_1010" x1="134.244" y1="-52.5314" x2="175.139" y2="142.121" gradientUnits="userSpaceOnUse">
            <stop stop-color="#E9EFFF"/>
            <stop offset="1" stop-color="#C7D8FF"/>
        </linearGradient>
        <linearGradient id="paint5_linear_105_1010" x1="136.313" y1="-43.3421" x2="173.325" y2="132.829" gradientUnits="userSpaceOnUse">
            <stop stop-color="#E9EFFF"/>
            <stop offset="1" stop-color="#C7D8FF"/>
        </linearGradient>
        <linearGradient id="paint6_linear_105_1010" x1="138.382" y1="-34.1529" x2="171.558" y2="123.754" gradientUnits="userSpaceOnUse">
            <stop stop-color="#E9EFFF"/>
            <stop offset="1" stop-color="#C7D8FF"/>
        </linearGradient>
        <linearGradient id="paint7_linear_105_1010" x1="140.453" y1="-24.964" x2="169.846" y2="114.936" gradientUnits="userSpaceOnUse">
            <stop stop-color="#E9EFFF"/>
            <stop offset="1" stop-color="#C7D8FF"/>
        </linearGradient>
        <linearGradient id="paint8_linear_105_1010" x1="142.527" y1="-15.7756" x2="168.139" y2="106.133" gradientUnits="userSpaceOnUse">
            <stop stop-color="#E9EFFF"/>
            <stop offset="1" stop-color="#C7D8FF"/>
        </linearGradient>
        <linearGradient id="paint9_linear_105_1010" x1="144.603" y1="-6.58826" x2="166.44" y2="97.3509" gradientUnits="userSpaceOnUse">
            <stop stop-color="#E9EFFF"/>
            <stop offset="1" stop-color="#C7D8FF"/>
        </linearGradient>
        <linearGradient id="paint10_linear_105_1010" x1="146.684" y1="2.59895" x2="164.753" y2="88.6013" gradientUnits="userSpaceOnUse">
            <stop stop-color="#E9EFFF"/>
            <stop offset="1" stop-color="#C7D8FF"/>
        </linearGradient>
        <linearGradient id="paint11_linear_105_1010" x1="148.775" y1="11.7827" x2="163.086" y2="79.9003" gradientUnits="userSpaceOnUse">
            <stop stop-color="#E9EFFF"/>
            <stop offset="1" stop-color="#C7D8FF"/>
        </linearGradient>
    </defs>
</svg>
