<svg width="479" height="468" viewBox="0 0 479 468" fill="none" xmlns="http://www.w3.org/2000/svg">
    <path d="M6.58347 119.783C-26.8337 -1.31007 96.9559 -13.6359 186.291 22.9279C238.414 41.7322 272.644 -16.7477 337.214 6.59089C401.784 29.9295 324.378 103.446 423.178 141.177C521.978 178.908 473.745 347.723 387.392 349.668C301.039 351.613 324.767 380.009 238.414 444.968C152.061 509.927 6.58366 419.684 42.7585 324.385C78.9333 229.086 42.7581 250.868 6.58347 119.783Z" stroke="url(#paint0_linear_102_994)" stroke-opacity="0.5"/>
    <path d="M192.436 214.023C188.58 202.49 206.639 183.883 221.161 191.824C234.459 199.095 248.001 194.191 256.947 197.433C280.5 205.967 271.836 210.484 282.365 220.62C295.177 232.954 301.29 265.251 271.836 265.251C247.612 265.251 254.86 277.016 236.72 282.23C218.581 287.443 198.009 278.569 198.009 255.206C198.009 246.432 198.857 233.232 192.436 214.023Z" stroke="url(#paint1_linear_102_994)" stroke-opacity="0.5"/>
    <path d="M23.4765 127.761C-7.25327 16.6281 106.925 3.73133 189.458 37.693C238.052 55.4489 270.401 1.83947 329.914 23.3511C390.756 45.3438 319.599 112.588 410.374 147.81C501.357 183.232 458.064 339.637 376.884 341.405C296.179 343.173 318.409 370.057 238.257 429.584C158.106 489.112 23.9833 406.266 56.8695 317.507C89.7557 230.073 56.9463 248.676 23.4765 127.761Z" stroke="url(#paint2_linear_102_994)" stroke-opacity="0.5"/>
    <path d="M40.3703 135.741C12.3279 34.5681 116.894 21.1003 192.627 52.4599C237.69 69.1673 268.159 20.4285 322.615 40.1131C379.728 60.76 314.82 121.731 397.571 154.445C480.737 187.558 442.385 331.552 366.377 333.143C291.32 334.735 312.052 360.106 238.101 414.203C164.151 468.299 41.3838 392.851 70.9814 310.63C100.579 231.063 71.1353 246.485 40.3703 135.741Z" stroke="url(#paint3_linear_102_994)" stroke-opacity="0.5"/>
    <path d="M57.2635 143.72C31.9085 52.5071 126.863 38.4685 195.794 67.2259C237.328 82.8849 265.916 39.0166 315.316 56.8742C368.7 76.1752 310.041 130.874 384.767 161.079C460.116 191.883 426.705 323.466 355.87 324.881C286.461 326.295 305.694 350.155 237.945 398.82C170.196 447.485 58.7836 379.434 85.0926 303.753C111.402 232.052 85.3237 244.294 57.2635 143.72Z" stroke="url(#paint4_linear_102_994)" stroke-opacity="0.5"/>
    <path d="M74.157 151.702C51.4895 70.4486 136.832 55.839 198.962 81.9944C236.967 96.6049 263.674 57.6071 308.017 73.6377C357.672 91.5929 305.263 140.019 371.964 167.715C439.496 196.211 411.025 315.383 345.363 316.621C281.602 317.858 299.337 340.207 237.789 383.44C176.241 426.673 76.1839 366.019 99.2042 296.879C122.225 233.043 99.5124 242.105 74.157 151.702Z" stroke="url(#paint5_linear_102_994)" stroke-opacity="0.5"/>
    <path d="M91.051 160.087C71.0709 88.7933 146.801 73.6127 202.13 97.166C236.606 110.728 261.432 76.6008 300.718 90.8044C346.644 107.414 300.485 149.567 359.161 174.755C418.876 200.941 395.346 307.703 334.856 308.764C276.743 309.825 292.98 330.661 237.633 368.463C182.286 406.265 93.5845 353.008 113.316 290.407C133.048 234.438 113.702 240.319 91.051 160.087Z" stroke="url(#paint6_linear_102_994)" stroke-opacity="0.5"/>
    <path d="M107.945 168.95C90.6521 107.617 156.771 91.8651 205.299 112.816C236.244 125.33 259.19 96.0731 293.419 108.45C335.616 123.713 295.706 159.594 346.358 182.273C398.256 206.151 379.666 300.502 324.349 301.386C271.884 302.27 286.623 321.594 237.478 353.965C188.332 386.335 110.985 340.476 127.428 284.414C143.871 236.311 127.891 239.012 107.945 168.95Z" stroke="url(#paint7_linear_102_994)" stroke-opacity="0.5"/>
    <path d="M124.839 177.84C110.234 126.466 166.741 110.144 208.467 128.493C235.884 139.958 256.948 115.572 286.121 126.121C324.589 140.039 290.929 169.647 333.556 189.817C377.636 211.386 363.987 293.327 313.843 294.034C267.026 294.741 280.267 312.554 237.322 339.493C194.378 366.432 128.386 327.969 141.541 278.447C154.695 238.21 142.08 237.731 124.839 177.84Z" stroke="url(#paint8_linear_102_994)" stroke-opacity="0.5"/>
    <path d="M141.735 186.767C129.817 145.353 176.712 128.46 211.637 144.207C235.524 154.623 254.708 135.108 278.824 143.83C313.563 156.402 286.152 179.738 320.755 197.399C357.018 216.659 348.31 286.189 303.338 286.719C262.169 287.25 273.912 303.551 237.168 325.058C200.425 346.566 145.788 315.5 155.654 272.518C165.52 240.147 156.271 236.488 141.735 186.767Z" stroke="url(#paint9_linear_102_994)" stroke-opacity="0.5"/>
    <path d="M158.631 195.751C149.4 164.298 186.684 146.834 214.808 159.979C235.165 169.347 252.468 154.702 271.528 161.597C302.538 172.823 281.376 189.886 307.954 205.039C336.4 221.99 332.632 279.109 292.833 279.462C257.312 279.816 267.557 294.605 237.015 310.681C206.473 326.758 163.191 303.089 169.768 266.647C176.346 242.141 170.462 235.302 158.631 195.751Z" stroke="url(#paint10_linear_102_994)" stroke-opacity="0.5"/>
    <path d="M175.53 204.821C168.987 183.327 196.658 165.292 217.981 175.834C234.808 184.154 250.231 174.38 264.234 179.448C291.515 189.328 276.603 200.118 295.156 212.763C315.785 227.405 316.958 272.113 282.331 272.29C252.458 272.467 261.205 285.744 236.864 296.389C212.523 307.034 180.596 290.762 183.885 260.859C187.174 244.22 184.656 234.2 175.53 204.821Z" stroke="url(#paint11_linear_102_994)" stroke-opacity="0.5"/>
    <defs>
        <linearGradient id="paint0_linear_102_994" x1="239.573" y1="1" x2="239.573" y2="467" gradientUnits="userSpaceOnUse">
            <stop stop-color="#EBF3FF"/>
            <stop offset="1" stop-color="#C2D5FF"/>
        </linearGradient>
        <linearGradient id="paint1_linear_102_994" x1="242.451" y1="189.91" x2="242.451" y2="283.674" gradientUnits="userSpaceOnUse">
            <stop stop-color="#EBF3FF"/>
            <stop offset="1" stop-color="#C2D5FF"/>
        </linearGradient>
        <linearGradient id="paint2_linear_102_994" x1="239.817" y1="18.1729" x2="239.817" y2="449.735" gradientUnits="userSpaceOnUse">
            <stop stop-color="#EBF3FF"/>
            <stop offset="1" stop-color="#C2D5FF"/>
        </linearGradient>
        <linearGradient id="paint3_linear_102_994" x1="240.061" y1="35.3472" x2="240.061" y2="432.472" gradientUnits="userSpaceOnUse">
            <stop stop-color="#EBF3FF"/>
            <stop offset="1" stop-color="#C2D5FF"/>
        </linearGradient>
        <linearGradient id="paint4_linear_102_994" x1="240.306" y1="52.5201" x2="240.306" y2="415.208" gradientUnits="userSpaceOnUse">
            <stop stop-color="#EBF3FF"/>
            <stop offset="1" stop-color="#C2D5FF"/>
        </linearGradient>
        <linearGradient id="paint5_linear_102_994" x1="240.553" y1="69.6949" x2="240.553" y2="397.947" gradientUnits="userSpaceOnUse">
            <stop stop-color="#EBF3FF"/>
            <stop offset="1" stop-color="#C2D5FF"/>
        </linearGradient>
        <linearGradient id="paint6_linear_102_994" x1="240.802" y1="86.8687" x2="240.802" y2="381.09" gradientUnits="userSpaceOnUse">
            <stop stop-color="#EBF3FF"/>
            <stop offset="1" stop-color="#C2D5FF"/>
        </linearGradient>
        <linearGradient id="paint7_linear_102_994" x1="241.052" y1="104.043" x2="241.052" y2="364.713" gradientUnits="userSpaceOnUse">
            <stop stop-color="#EBF3FF"/>
            <stop offset="1" stop-color="#C2D5FF"/>
        </linearGradient>
        <linearGradient id="paint8_linear_102_994" x1="241.307" y1="121.217" x2="241.307" y2="348.364" gradientUnits="userSpaceOnUse">
            <stop stop-color="#EBF3FF"/>
            <stop offset="1" stop-color="#C2D5FF"/>
        </linearGradient>
        <linearGradient id="paint9_linear_102_994" x1="241.567" y1="138.39" x2="241.567" y2="332.055" gradientUnits="userSpaceOnUse">
            <stop stop-color="#EBF3FF"/>
            <stop offset="1" stop-color="#C2D5FF"/>
        </linearGradient>
        <linearGradient id="paint10_linear_102_994" x1="241.837" y1="155.564" x2="241.837" y2="315.808" gradientUnits="userSpaceOnUse">
            <stop stop-color="#EBF3FF"/>
            <stop offset="1" stop-color="#C2D5FF"/>
        </linearGradient>
        <linearGradient id="paint11_linear_102_994" x1="242.125" y1="172.737" x2="242.125" y2="299.657" gradientUnits="userSpaceOnUse">
            <stop stop-color="#EBF3FF"/>
            <stop offset="1" stop-color="#C2D5FF"/>
        </linearGradient>
    </defs>
</svg>
