<svg width="534" height="522" viewBox="0 0 534 522" fill="none" xmlns="http://www.w3.org/2000/svg">
    <path d="M526.775 388.134C564.033 523.148 426.013 536.891 326.408 496.123C268.293 475.157 230.128 540.36 158.135 514.339C86.1414 488.317 172.446 406.349 62.288 364.28C-47.8703 322.212 5.90799 133.989 102.188 131.821C198.468 129.652 172.013 97.9924 268.293 25.5655C364.573 -46.8614 526.774 53.7557 486.441 160.011C446.107 266.266 486.441 241.979 526.775 388.134Z" stroke="url(#paint0_linear_105_877)"/>
    <path d="M319.557 283.06C323.856 295.92 303.72 316.665 287.529 307.812C272.702 299.704 257.604 305.172 247.629 301.558C221.369 292.042 231.028 287.006 219.289 275.705C205.004 261.953 198.188 225.943 231.028 225.943C258.038 225.943 249.956 212.825 270.181 207.013C290.406 201.2 313.343 211.094 313.343 237.143C313.343 246.925 312.397 261.643 319.557 283.06Z" stroke="url(#paint1_linear_105_877)"/>
    <path d="M507.94 379.238C542.202 503.147 414.898 517.527 322.876 479.661C268.697 459.863 232.629 519.636 166.273 495.651C98.4376 471.13 177.775 396.156 76.5637 356.884C-24.8788 317.39 23.3909 143.005 113.904 141.034C203.886 139.062 179.101 109.088 268.467 42.717C357.833 -23.654 507.374 68.7155 470.708 167.679C434.041 265.164 470.622 244.423 507.94 379.238Z" stroke="url(#paint2_linear_105_877)"/>
    <path d="M489.104 370.341C520.37 483.145 403.783 498.161 319.344 463.196C269.1 444.568 235.129 498.91 174.412 476.963C110.733 453.942 183.103 385.961 90.839 349.487C-1.88777 312.567 40.8733 152.019 125.619 150.245C209.304 148.471 186.19 120.182 268.642 59.8672C351.093 -0.448016 487.974 83.674 454.974 175.346C421.974 264.061 454.802 246.865 489.104 370.341Z" stroke="url(#paint3_linear_105_877)"/>
    <path d="M470.268 361.445C498.538 463.144 392.668 478.797 315.812 446.734C269.503 429.274 237.629 478.186 182.55 458.275C123.029 436.755 188.431 375.769 105.114 342.091C21.1032 307.746 58.3556 161.035 137.334 159.458C214.722 157.881 193.278 131.278 268.815 77.0189C344.353 22.7595 468.573 98.634 439.24 183.015C409.906 262.959 438.982 249.31 470.268 361.445Z" stroke="url(#paint4_linear_105_877)"/>
    <path d="M451.432 352.545C476.706 443.139 381.553 459.428 312.28 430.266C269.906 413.976 240.129 457.457 190.688 439.583C135.325 419.564 193.759 365.571 119.389 334.691C44.0938 302.92 75.8377 170.047 149.049 168.667C220.14 167.287 200.366 142.369 268.989 94.166C337.613 45.9625 449.173 113.589 423.506 190.679C397.839 261.853 423.162 251.749 451.432 352.545Z" stroke="url(#paint5_linear_105_877)"/>
    <path d="M432.597 343.196C454.874 422.685 370.437 439.611 308.748 413.35C270.309 398.229 242.629 436.279 198.826 420.443C147.621 401.924 199.087 354.925 133.664 326.842C67.0849 297.644 93.3201 178.609 160.764 177.427C225.557 176.244 207.454 153.012 269.163 110.864C330.873 68.7166 429.772 128.096 407.772 197.894C385.772 260.297 407.342 253.74 432.597 343.196Z" stroke="url(#paint6_linear_105_877)"/>
    <path d="M413.761 333.315C433.041 401.699 359.321 419.261 305.215 395.902C270.712 381.95 245.129 414.57 206.964 400.77C159.916 383.752 204.414 343.746 147.939 318.46C90.0751 291.837 110.802 186.64 172.478 185.654C230.974 184.669 214.541 163.122 269.337 127.03C324.132 90.9386 410.371 142.07 392.037 204.577C373.704 258.21 391.522 255.198 413.761 333.315Z" stroke="url(#paint7_linear_105_877)"/>
    <path d="M394.924 323.403C411.208 380.682 348.205 398.881 301.682 378.423C271.114 365.639 247.628 392.829 215.1 381.067C172.21 365.549 209.741 332.537 162.213 310.048C113.065 286 128.283 194.64 184.192 193.851C236.391 193.062 221.628 173.202 269.509 143.166C317.391 113.13 390.969 156.014 376.302 211.229C361.636 256.092 375.701 256.626 394.924 323.403Z" stroke="url(#paint8_linear_105_877)"/>
    <path d="M376.087 313.45C389.375 359.624 337.088 378.46 298.148 360.903C271.515 349.289 250.126 371.048 223.237 361.322C184.504 347.305 215.067 321.287 176.486 301.595C136.054 280.121 145.764 202.598 195.906 202.007C241.807 201.416 228.715 183.241 269.682 159.26C310.649 135.28 371.567 169.917 360.567 217.841C349.567 253.934 359.879 258.013 376.087 313.45Z" stroke="url(#paint9_linear_105_877)"/>
    <path d="M357.248 303.433C367.539 338.502 325.97 357.974 294.613 343.318C271.915 332.873 252.623 349.202 231.372 341.513C196.797 328.997 220.392 309.973 190.758 293.078C159.042 274.177 163.243 210.493 207.618 210.098C247.222 209.704 235.799 193.215 269.853 175.29C303.906 157.366 352.163 183.755 344.83 224.387C337.497 251.71 344.056 259.336 357.248 303.433Z" stroke="url(#paint10_linear_105_877)"/>
    <path d="M338.406 293.32C345.701 317.284 314.849 337.393 291.074 325.638C272.312 316.362 255.117 327.26 239.504 321.609C209.086 310.593 225.714 298.562 205.027 284.464C182.027 268.138 180.719 218.291 219.327 218.094C252.633 217.897 242.881 203.093 270.021 191.225C297.16 179.356 332.757 197.498 329.09 230.838C325.423 249.391 328.23 260.562 338.406 293.32Z" stroke="url(#paint11_linear_105_877)"/>
    <defs>
        <linearGradient id="paint0_linear_105_877" x1="267" y1="520.572" x2="267" y2="1.00039" gradientUnits="userSpaceOnUse">
            <stop stop-color="#CCFFF9"/>
            <stop offset="1" stop-color="#C2D5FF"/>
        </linearGradient>
        <linearGradient id="paint1_linear_105_877" x1="263.791" y1="309.945" x2="263.791" y2="205.402" gradientUnits="userSpaceOnUse">
            <stop stop-color="#CCFFF9"/>
            <stop offset="1" stop-color="#C2D5FF"/>
        </linearGradient>
        <linearGradient id="paint2_linear_105_877" x1="266.729" y1="501.425" x2="266.729" y2="20.2501" gradientUnits="userSpaceOnUse">
            <stop stop-color="#CCFFF9"/>
            <stop offset="1" stop-color="#C2D5FF"/>
        </linearGradient>
        <linearGradient id="paint3_linear_105_877" x1="266.456" y1="482.276" x2="266.456" y2="39.4981" gradientUnits="userSpaceOnUse">
            <stop stop-color="#CCFFF9"/>
            <stop offset="1" stop-color="#C2D5FF"/>
        </linearGradient>
        <linearGradient id="paint4_linear_105_877" x1="266.183" y1="463.13" x2="266.183" y2="58.7472" gradientUnits="userSpaceOnUse">
            <stop stop-color="#CCFFF9"/>
            <stop offset="1" stop-color="#C2D5FF"/>
        </linearGradient>
        <linearGradient id="paint5_linear_105_877" x1="265.907" y1="443.98" x2="265.907" y2="77.9912" gradientUnits="userSpaceOnUse">
            <stop stop-color="#CCFFF9"/>
            <stop offset="1" stop-color="#C2D5FF"/>
        </linearGradient>
        <linearGradient id="paint6_linear_105_877" x1="265.631" y1="424.831" x2="265.631" y2="96.7855" gradientUnits="userSpaceOnUse">
            <stop stop-color="#CCFFF9"/>
            <stop offset="1" stop-color="#C2D5FF"/>
        </linearGradient>
        <linearGradient id="paint7_linear_105_877" x1="265.351" y1="405.684" x2="265.351" y2="115.047" gradientUnits="userSpaceOnUse">
            <stop stop-color="#CCFFF9"/>
            <stop offset="1" stop-color="#C2D5FF"/>
        </linearGradient>
        <linearGradient id="paint8_linear_105_877" x1="265.067" y1="386.535" x2="265.067" y2="133.275" gradientUnits="userSpaceOnUse">
            <stop stop-color="#CCFFF9"/>
            <stop offset="1" stop-color="#C2D5FF"/>
        </linearGradient>
        <linearGradient id="paint9_linear_105_877" x1="264.777" y1="367.389" x2="264.777" y2="151.46" gradientUnits="userSpaceOnUse">
            <stop stop-color="#CCFFF9"/>
            <stop offset="1" stop-color="#C2D5FF"/>
        </linearGradient>
        <linearGradient id="paint10_linear_105_877" x1="264.476" y1="348.24" x2="264.476" y2="169.574" gradientUnits="userSpaceOnUse">
            <stop stop-color="#CCFFF9"/>
            <stop offset="1" stop-color="#C2D5FF"/>
        </linearGradient>
        <linearGradient id="paint11_linear_105_877" x1="264.155" y1="329.092" x2="264.155" y2="187.58" gradientUnits="userSpaceOnUse">
            <stop stop-color="#CCFFF9"/>
            <stop offset="1" stop-color="#C2D5FF"/>
        </linearGradient>
    </defs>
</svg>
