<svg width="506" height="522" viewBox="0 0 506 522" fill="none" xmlns="http://www.w3.org/2000/svg">
    <path d="M-20.7695 133.548C-58.059 -1.57776 80.0753 -15.3319 179.762 25.4689C237.925 46.4523 276.122 -18.8043 348.174 7.23876C420.227 33.2818 333.851 115.318 444.1 157.421C554.349 199.524 500.526 387.902 404.167 390.072C307.807 392.242 334.285 423.928 237.925 496.415C141.566 568.901 -20.7693 468.201 19.5974 361.859C59.9642 255.516 19.597 279.823 -20.7695 133.548Z" stroke="url(#paint0_linear_268_970)"/>
    <path d="M186.619 238.708C182.316 225.838 202.469 205.076 218.673 213.936C233.512 222.05 248.623 216.578 258.606 220.195C284.888 229.718 275.221 234.759 286.969 246.069C301.266 259.833 308.088 295.872 275.221 295.872C248.189 295.872 256.277 309.001 236.035 314.818C215.794 320.636 192.838 310.733 192.838 284.663C192.838 274.873 193.785 260.143 186.619 238.708Z" stroke="url(#paint1_linear_268_970)"/>
    <path d="M-1.91883 142.451C-36.2095 18.4393 91.1992 4.04808 183.297 41.9453C237.521 61.7587 273.619 1.937 340.029 25.9414C407.921 50.4826 328.518 125.519 429.812 164.823C531.339 204.349 483.029 378.878 392.442 380.851C302.385 382.824 327.19 412.823 237.751 479.249C148.311 545.675 -1.35324 453.229 35.3438 354.184C72.0408 256.619 35.4294 277.377 -1.91883 142.451Z" stroke="url(#paint2_linear_268_970)"/>
    <path d="M16.932 151.355C-14.3599 38.4578 102.323 23.4294 186.832 58.423C237.117 77.0664 271.116 22.6797 331.884 44.6453C395.614 67.6848 323.185 135.721 415.525 172.226C508.328 209.176 465.532 369.856 380.717 371.632C296.962 373.408 320.096 401.719 237.576 462.084C155.056 522.449 18.0629 438.258 51.0902 346.51C84.1176 257.723 51.262 274.932 16.932 151.355Z" stroke="url(#paint3_linear_268_970)"/>
    <path d="M35.7829 160.259C7.48981 58.4757 113.447 42.8102 190.366 74.9001C236.714 92.3736 268.614 43.4219 323.738 63.3488C383.308 84.8865 317.853 145.924 401.238 179.629C485.318 214.002 448.035 360.834 368.992 362.412C291.54 363.99 313.002 390.615 237.402 444.919C161.802 499.223 37.4792 423.286 66.8368 338.836C96.1944 258.826 67.0947 272.487 35.7829 160.259Z" stroke="url(#paint4_linear_268_970)"/>
    <path d="M54.6339 169.165C29.3397 78.4963 124.571 62.1937 193.901 91.38C236.31 107.684 266.112 64.1667 315.594 82.0549C371.002 102.091 312.52 156.128 386.951 187.034C462.308 218.832 430.538 351.814 357.267 353.195C286.117 354.576 305.908 379.514 237.227 427.757C168.547 476 56.8956 408.318 82.5835 331.165C108.271 259.932 82.9275 270.044 54.6339 169.165Z" stroke="url(#paint5_linear_268_970)"/>
    <path d="M73.4862 178.522C51.1907 98.967 135.697 82.0273 197.437 108.31C235.908 123.444 263.61 85.3616 307.45 101.211C358.697 119.745 307.189 166.783 372.665 194.89C439.299 224.111 413.043 343.244 345.543 344.428C280.696 345.612 298.815 368.862 237.054 411.045C175.294 453.227 76.3132 393.799 98.3315 323.944C120.35 261.488 98.7615 268.052 73.4862 178.522Z" stroke="url(#paint6_linear_268_970)"/>
    <path d="M92.3377 188.412C73.0411 119.971 146.822 102.394 200.973 125.773C235.504 139.737 261.109 107.09 299.305 120.901C346.392 137.933 301.857 177.972 358.379 203.279C416.29 229.923 395.546 335.208 333.819 336.194C275.274 337.181 291.721 358.745 236.881 394.866C182.04 430.988 95.7302 379.814 114.079 317.256C132.427 263.578 114.595 266.593 92.3377 188.412Z" stroke="url(#paint7_linear_268_970)"/>
    <path d="M111.19 198.332C94.892 141.005 157.947 122.791 204.509 143.267C235.102 156.06 258.607 128.848 291.161 140.621C334.087 156.151 296.525 189.19 344.092 211.697C393.281 235.766 378.05 327.201 322.095 327.99C269.853 328.78 284.628 348.657 236.707 378.717C188.787 408.778 115.148 365.858 129.826 310.598C144.505 265.698 130.429 265.163 111.19 198.332Z" stroke="url(#paint8_linear_268_970)"/>
    <path d="M130.044 208.293C116.745 162.081 169.074 143.23 208.046 160.802C234.701 172.426 256.108 150.648 283.019 160.382C321.784 174.41 291.196 200.45 329.808 220.158C370.274 241.65 360.556 319.237 310.373 319.828C264.434 320.42 277.537 338.61 236.536 362.61C195.535 386.61 134.567 351.945 145.576 303.982C156.585 267.859 146.264 263.776 130.044 208.293Z" stroke="url(#paint9_linear_268_970)"/>
    <path d="M148.897 218.319C138.597 183.221 180.2 163.733 211.583 178.401C234.299 188.855 253.607 172.512 274.876 180.207C309.48 192.734 285.865 211.774 315.523 228.683C347.266 247.598 343.061 311.336 298.65 311.73C259.013 312.125 270.445 328.628 236.364 346.567C202.282 364.506 153.985 338.095 161.325 297.43C168.664 270.084 162.099 262.452 148.897 218.319Z" stroke="url(#paint10_linear_268_970)"/>
    <path d="M167.755 228.439C160.453 204.455 191.331 184.33 215.125 196.094C233.903 205.378 251.112 194.471 266.738 200.127C297.181 211.152 280.54 223.192 301.243 237.302C324.263 253.641 325.571 303.53 286.932 303.727C253.598 303.924 263.358 318.74 236.196 330.618C209.035 342.497 173.409 324.34 177.078 290.972C180.748 272.404 177.939 261.224 167.755 228.439Z" stroke="url(#paint11_linear_268_970)"/>
    <defs>
        <linearGradient id="paint0_linear_268_970" x1="239.219" y1="1" x2="239.219" y2="521" gradientUnits="userSpaceOnUse">
            <stop stop-color="#EBF3FF"/>
            <stop offset="1" stop-color="#C2D5FF"/>
        </linearGradient>
        <linearGradient id="paint1_linear_268_970" x1="242.43" y1="211.801" x2="242.43" y2="316.43" gradientUnits="userSpaceOnUse">
            <stop stop-color="#EBF3FF"/>
            <stop offset="1" stop-color="#C2D5FF"/>
        </linearGradient>
        <linearGradient id="paint2_linear_268_970" x1="239.491" y1="20.1631" x2="239.491" y2="501.734" gradientUnits="userSpaceOnUse">
            <stop stop-color="#EBF3FF"/>
            <stop offset="1" stop-color="#C2D5FF"/>
        </linearGradient>
        <linearGradient id="paint3_linear_268_970" x1="239.763" y1="39.3271" x2="239.763" y2="482.47" gradientUnits="userSpaceOnUse">
            <stop stop-color="#EBF3FF"/>
            <stop offset="1" stop-color="#C2D5FF"/>
        </linearGradient>
        <linearGradient id="paint4_linear_268_970" x1="240.037" y1="58.4902" x2="240.037" y2="463.206" gradientUnits="userSpaceOnUse">
            <stop stop-color="#EBF3FF"/>
            <stop offset="1" stop-color="#C2D5FF"/>
        </linearGradient>
        <linearGradient id="paint5_linear_268_970" x1="240.312" y1="77.6553" x2="240.312" y2="443.945" gradientUnits="userSpaceOnUse">
            <stop stop-color="#EBF3FF"/>
            <stop offset="1" stop-color="#C2D5FF"/>
        </linearGradient>
        <linearGradient id="paint6_linear_268_970" x1="240.59" y1="96.8193" x2="240.59" y2="425.135" gradientUnits="userSpaceOnUse">
            <stop stop-color="#EBF3FF"/>
            <stop offset="1" stop-color="#C2D5FF"/>
        </linearGradient>
        <linearGradient id="paint7_linear_268_970" x1="240.87" y1="115.983" x2="240.87" y2="406.86" gradientUnits="userSpaceOnUse">
            <stop stop-color="#EBF3FF"/>
            <stop offset="1" stop-color="#C2D5FF"/>
        </linearGradient>
        <linearGradient id="paint8_linear_268_970" x1="241.153" y1="135.147" x2="241.153" y2="388.616" gradientUnits="userSpaceOnUse">
            <stop stop-color="#EBF3FF"/>
            <stop offset="1" stop-color="#C2D5FF"/>
        </linearGradient>
        <linearGradient id="paint9_linear_268_970" x1="241.445" y1="154.311" x2="241.445" y2="370.417" gradientUnits="userSpaceOnUse">
            <stop stop-color="#EBF3FF"/>
            <stop offset="1" stop-color="#C2D5FF"/>
        </linearGradient>
        <linearGradient id="paint10_linear_268_970" x1="241.745" y1="173.475" x2="241.745" y2="352.288" gradientUnits="userSpaceOnUse">
            <stop stop-color="#EBF3FF"/>
            <stop offset="1" stop-color="#C2D5FF"/>
        </linearGradient>
        <linearGradient id="paint11_linear_268_970" x1="242.067" y1="192.638" x2="242.067" y2="334.266" gradientUnits="userSpaceOnUse">
            <stop stop-color="#EBF3FF"/>
            <stop offset="1" stop-color="#C2D5FF"/>
        </linearGradient>
    </defs>
</svg>
