<svg width="534" height="522" viewBox="0 0 534 522" fill="none" xmlns="http://www.w3.org/2000/svg">
    <path d="M7.23048 133.548C-30.059 -1.57776 108.075 -15.3319 207.762 25.4689C265.925 46.4523 304.122 -18.8043 376.174 7.23876C448.227 33.2818 361.851 115.318 472.1 157.421C582.349 199.524 528.526 387.902 432.167 390.072C335.807 392.242 362.285 423.928 265.925 496.415C169.566 568.901 7.2307 468.201 47.5974 361.859C87.9642 255.516 47.597 279.823 7.23048 133.548Z" stroke="url(#paint0_linear_105_829)"/>
    <path d="M214.619 238.708C210.316 225.838 230.469 205.076 246.673 213.936C261.512 222.05 276.623 216.578 286.606 220.195C312.888 229.718 303.22 234.759 314.969 246.069C329.266 259.833 336.088 295.872 303.22 295.872C276.189 295.872 284.277 309.001 264.035 314.818C243.793 320.636 220.838 310.733 220.838 284.663C220.838 274.873 221.785 260.143 214.619 238.708Z" stroke="url(#paint1_linear_105_829)"/>
    <path d="M26.0814 142.451C-8.20928 18.4393 119.199 4.04808 211.297 41.9453C265.522 61.7587 301.619 1.937 368.029 25.9414C435.921 50.4826 356.518 125.519 457.813 164.823C559.339 204.349 511.029 378.878 420.442 380.851C330.385 382.824 355.191 412.823 265.751 479.249C176.311 545.675 26.647 453.229 63.344 354.184C100.041 256.619 63.4297 277.377 26.0814 142.451Z" stroke="url(#paint2_linear_105_829)"/>
    <path d="M44.9322 151.355C13.6403 38.4578 130.323 23.4294 214.832 58.423C265.118 77.0664 299.117 22.6797 359.884 44.6453C423.615 67.6848 351.186 135.721 443.525 172.226C536.329 209.176 493.532 369.856 408.717 371.632C324.962 373.408 348.096 401.719 265.576 462.084C183.057 522.449 46.0632 438.258 79.0905 346.51C112.118 257.723 79.2622 274.932 44.9322 151.355Z" stroke="url(#paint3_linear_105_829)"/>
    <path d="M63.7834 160.259C35.4903 58.4757 141.448 42.8102 218.367 74.9001C264.714 92.3736 296.614 43.4219 351.739 63.3488C411.309 84.8865 345.853 145.924 429.238 179.629C513.319 214.002 476.035 360.834 396.992 362.412C319.54 363.99 341.002 390.615 265.402 444.919C189.802 499.223 65.4797 423.286 94.8373 338.836C124.195 258.826 95.0952 272.487 63.7834 160.259Z" stroke="url(#paint4_linear_105_829)"/>
    <path d="M82.6344 169.165C57.3402 78.4963 152.572 62.1937 221.902 91.38C264.311 107.684 294.112 64.1667 343.594 82.0549C399.003 102.091 340.521 156.128 414.951 187.034C490.309 218.832 458.539 351.814 385.267 353.195C314.118 354.576 333.908 379.514 265.228 427.757C196.548 476 84.8961 408.318 110.584 331.165C136.272 259.932 110.928 270.044 82.6344 169.165Z" stroke="url(#paint5_linear_105_829)"/>
    <path d="M101.486 178.522C79.1905 98.967 163.697 82.0273 225.437 108.31C263.907 123.444 291.61 85.3616 335.449 101.211C386.697 119.745 335.189 166.783 400.665 194.89C467.299 224.111 441.042 343.244 373.543 344.428C308.696 345.612 326.815 368.862 265.054 411.045C203.294 453.227 104.313 393.799 126.331 323.944C148.349 261.488 126.761 268.052 101.486 178.522Z" stroke="url(#paint6_linear_105_829)"/>
    <path d="M120.338 188.412C101.041 119.971 174.822 102.394 228.973 125.773C263.504 139.737 289.109 107.09 327.305 120.901C374.392 137.933 329.857 177.972 386.379 203.279C444.29 229.923 423.546 335.208 361.819 336.194C303.274 337.181 319.721 358.745 264.881 394.866C210.04 430.988 123.73 379.814 142.079 317.256C160.427 263.578 142.595 266.593 120.338 188.412Z" stroke="url(#paint7_linear_105_829)"/>
    <path d="M139.19 198.332C122.892 141.005 185.947 122.791 232.509 143.267C263.102 156.06 286.607 128.848 319.161 140.621C362.087 156.151 324.525 189.19 372.092 211.697C421.281 235.766 406.05 327.201 350.095 327.99C297.853 328.78 312.628 348.657 264.707 378.717C216.787 408.778 143.148 365.858 157.826 310.598C172.505 265.698 158.429 265.163 139.19 198.332Z" stroke="url(#paint8_linear_105_829)"/>
    <path d="M158.043 208.293C144.744 162.081 197.073 143.23 236.046 160.802C262.7 172.426 284.107 150.648 311.018 160.382C349.783 174.41 319.195 200.45 357.807 220.158C398.273 241.65 388.555 319.237 338.372 319.828C292.433 320.42 305.536 338.61 264.535 362.61C223.534 386.61 162.566 351.945 173.575 303.982C184.584 267.859 174.263 263.776 158.043 208.293Z" stroke="url(#paint9_linear_105_829)"/>
    <path d="M176.897 218.319C166.597 183.221 208.201 163.733 239.584 178.401C262.3 188.855 281.608 172.512 302.876 180.207C337.48 192.734 313.866 211.774 343.524 228.683C375.266 247.598 371.062 311.336 326.651 311.73C287.014 312.125 298.445 328.628 264.364 346.567C230.283 364.506 181.986 338.095 189.325 297.43C196.665 270.084 190.1 262.452 176.897 218.319Z" stroke="url(#paint10_linear_105_829)"/>
    <path d="M195.754 228.439C188.453 204.455 219.331 184.33 243.125 196.094C261.902 205.378 279.111 194.471 294.737 200.127C325.18 211.152 308.539 223.192 329.243 237.302C352.262 253.641 353.571 303.53 314.932 303.727C281.597 303.924 291.357 318.74 264.196 330.618C237.034 342.497 201.408 324.34 205.078 290.972C208.747 272.404 205.938 261.224 195.754 228.439Z" stroke="url(#paint11_linear_105_829)"/>
    <defs>
        <linearGradient id="paint0_linear_105_829" x1="267.219" y1="1" x2="267.219" y2="521" gradientUnits="userSpaceOnUse">
            <stop stop-color="#EBF3FF"/>
            <stop offset="1" stop-color="#C2D5FF"/>
        </linearGradient>
        <linearGradient id="paint1_linear_105_829" x1="270.43" y1="211.801" x2="270.43" y2="316.43" gradientUnits="userSpaceOnUse">
            <stop stop-color="#EBF3FF"/>
            <stop offset="1" stop-color="#C2D5FF"/>
        </linearGradient>
        <linearGradient id="paint2_linear_105_829" x1="267.491" y1="20.1631" x2="267.491" y2="501.734" gradientUnits="userSpaceOnUse">
            <stop stop-color="#EBF3FF"/>
            <stop offset="1" stop-color="#C2D5FF"/>
        </linearGradient>
        <linearGradient id="paint3_linear_105_829" x1="267.764" y1="39.3271" x2="267.764" y2="482.47" gradientUnits="userSpaceOnUse">
            <stop stop-color="#EBF3FF"/>
            <stop offset="1" stop-color="#C2D5FF"/>
        </linearGradient>
        <linearGradient id="paint4_linear_105_829" x1="268.037" y1="58.4902" x2="268.037" y2="463.206" gradientUnits="userSpaceOnUse">
            <stop stop-color="#EBF3FF"/>
            <stop offset="1" stop-color="#C2D5FF"/>
        </linearGradient>
        <linearGradient id="paint5_linear_105_829" x1="268.312" y1="77.6553" x2="268.312" y2="443.945" gradientUnits="userSpaceOnUse">
            <stop stop-color="#EBF3FF"/>
            <stop offset="1" stop-color="#C2D5FF"/>
        </linearGradient>
        <linearGradient id="paint6_linear_105_829" x1="268.59" y1="96.8193" x2="268.59" y2="425.135" gradientUnits="userSpaceOnUse">
            <stop stop-color="#EBF3FF"/>
            <stop offset="1" stop-color="#C2D5FF"/>
        </linearGradient>
        <linearGradient id="paint7_linear_105_829" x1="268.87" y1="115.983" x2="268.87" y2="406.86" gradientUnits="userSpaceOnUse">
            <stop stop-color="#EBF3FF"/>
            <stop offset="1" stop-color="#C2D5FF"/>
        </linearGradient>
        <linearGradient id="paint8_linear_105_829" x1="269.153" y1="135.147" x2="269.153" y2="388.616" gradientUnits="userSpaceOnUse">
            <stop stop-color="#EBF3FF"/>
            <stop offset="1" stop-color="#C2D5FF"/>
        </linearGradient>
        <linearGradient id="paint9_linear_105_829" x1="269.444" y1="154.311" x2="269.444" y2="370.417" gradientUnits="userSpaceOnUse">
            <stop stop-color="#EBF3FF"/>
            <stop offset="1" stop-color="#C2D5FF"/>
        </linearGradient>
        <linearGradient id="paint10_linear_105_829" x1="269.745" y1="173.475" x2="269.745" y2="352.288" gradientUnits="userSpaceOnUse">
            <stop stop-color="#EBF3FF"/>
            <stop offset="1" stop-color="#C2D5FF"/>
        </linearGradient>
        <linearGradient id="paint11_linear_105_829" x1="270.066" y1="192.638" x2="270.066" y2="334.266" gradientUnits="userSpaceOnUse">
            <stop stop-color="#EBF3FF"/>
            <stop offset="1" stop-color="#C2D5FF"/>
        </linearGradient>
    </defs>
</svg>
