<svg width="515" height="377" viewBox="0 0 515 377" fill="none" xmlns="http://www.w3.org/2000/svg">
    <path d="M102.701 454.244C-15.3486 424.067 33.8856 313.904 107.692 256.294C148.625 221.463 115.87 164.481 166.615 121.354C217.36 78.2267 241.983 178.803 321.329 113.786C400.676 48.7688 519.587 170.675 479.64 244.318C439.693 317.961 475.028 311.658 488.137 415.646C501.247 519.634 355.209 598.665 292.39 522.314C229.571 445.964 230.491 486.912 102.701 454.244Z" stroke="url(#paint0_linear_105_955)"/>
    <path d="M271.547 343.145C259.98 340.837 253.01 316.671 266.689 308.268C279.215 300.573 281.607 286.81 288.645 280.839C307.172 265.118 306.804 274.588 320.408 270.604C336.963 265.756 367.1 276.161 352.916 300.961C341.25 321.357 354.647 320.92 350.301 338.704C345.955 356.487 328.577 369.535 308.906 358.284C301.519 354.059 290.813 346.988 271.547 343.145Z" stroke="url(#paint1_linear_105_955)"/>
    <path d="M117.554 443.863C9.18433 416.219 53.3091 313.874 121.649 260.737C160 228.374 130.44 175.32 177.212 135.571C225.028 94.9351 247.379 187.229 320.749 127.761C394.387 68.2133 505.227 179.983 467.623 249.186C430.247 317.988 463.587 312.218 475.11 408.37C486.633 504.521 352.291 577.553 293.395 507.121C235.615 437.327 235.478 473.91 117.554 443.863Z" stroke="url(#paint2_linear_105_955)"/>
    <path d="M132.408 433.482C33.7186 408.372 72.734 313.845 135.608 265.182C171.376 235.285 145.011 186.161 187.81 149.789C232.697 111.645 252.776 195.656 320.169 141.736C388.099 87.6588 490.869 189.292 455.607 254.055C420.802 318.017 452.148 312.779 462.084 401.094C472.02 489.409 349.374 556.443 294.4 491.928C241.66 428.691 240.466 460.909 132.408 433.482Z" stroke="url(#paint3_linear_105_955)"/>
    <path d="M147.261 423.1C58.2523 400.524 92.1583 313.815 149.566 269.625C182.752 242.195 159.582 197 198.407 164.006C240.365 128.353 258.173 204.082 319.589 155.71C381.811 107.103 476.511 198.6 443.59 258.922C411.357 318.043 440.708 313.34 449.057 393.818C457.406 474.296 346.457 535.331 295.406 476.735C247.705 420.055 245.454 447.907 147.261 423.1Z" stroke="url(#paint4_linear_105_955)"/>
    <path d="M162.117 412.72C82.788 392.677 111.585 313.786 163.526 274.069C194.129 249.106 174.155 207.84 209.007 178.224C248.036 145.063 263.571 212.51 319.012 169.686C375.525 126.549 462.154 207.909 431.576 263.791C401.913 318.072 429.27 313.901 436.032 386.543C442.794 459.184 343.542 514.22 296.413 461.542C253.751 411.419 250.444 434.906 162.117 412.72Z" stroke="url(#paint5_linear_105_955)"/>
    <path d="M177.311 402.533C107.663 385.024 131.35 313.951 177.825 278.708C205.846 256.212 189.067 218.874 219.945 192.636C256.046 161.966 269.309 221.131 318.773 183.856C369.577 146.188 448.136 217.412 419.9 268.854C392.809 318.294 418.171 314.657 423.347 379.461C428.522 444.266 340.966 493.304 297.759 446.544C260.137 402.978 255.772 422.099 177.311 402.533Z" stroke="url(#paint6_linear_105_955)"/>
    <path d="M192.909 392.577C132.941 377.602 151.518 314.346 192.528 283.576C217.966 263.547 204.382 230.139 231.287 207.278C264.459 179.1 275.45 229.982 318.937 198.256C364.033 166.058 434.522 227.146 408.628 274.147C384.107 318.746 407.476 315.643 411.064 372.61C414.652 429.578 338.793 472.617 299.509 431.776C266.925 394.767 261.504 409.523 192.909 392.577Z" stroke="url(#paint7_linear_105_955)"/>
    <path d="M208.53 382.634C158.242 370.192 171.71 314.755 207.253 288.458C230.109 270.896 219.721 241.417 242.652 221.934C272.895 196.247 281.614 238.846 319.125 212.669C358.513 185.941 420.931 236.892 397.379 279.453C375.429 319.212 396.803 316.642 398.805 365.772C400.806 414.903 336.643 451.944 301.282 417.021C273.737 386.568 267.259 396.959 208.53 382.634Z" stroke="url(#paint8_linear_105_955)"/>
    <path d="M224.183 372.708C183.575 362.799 191.934 315.18 222.011 293.357C242.284 278.261 235.091 252.711 254.049 236.606C281.363 213.411 287.81 247.728 319.344 227.098C353.024 205.841 407.372 246.655 386.161 284.776C366.783 319.694 386.163 317.657 386.577 358.951C386.992 400.245 334.525 431.288 303.086 402.283C280.581 378.387 273.046 384.412 224.183 372.708Z" stroke="url(#paint9_linear_105_955)"/>
    <path d="M239.884 362.808C208.956 355.433 212.206 315.632 236.817 298.282C254.508 285.653 250.509 264.032 265.494 251.305C289.879 230.601 294.054 256.636 319.612 241.555C347.583 225.767 393.861 256.445 374.993 290.126C358.185 320.203 375.57 318.7 374.398 352.157C373.226 385.614 332.455 410.658 304.939 387.571C287.473 370.232 278.882 371.892 239.884 362.808Z" stroke="url(#paint10_linear_105_955)"/>
    <path d="M255.658 352.947C234.41 348.106 232.55 316.122 251.695 303.246C266.804 293.084 266.001 275.392 277.012 266.043C298.468 247.83 300.371 265.582 319.952 256.05C342.215 245.732 380.422 266.274 363.896 295.514C349.66 320.751 365.051 319.781 362.292 345.401C359.533 371.022 330.458 390.067 306.865 372.898C294.438 362.116 284.79 359.411 255.658 352.947Z" stroke="url(#paint11_linear_105_955)"/>
    <defs>
        <linearGradient id="paint0_linear_105_955" x1="114.888" y1="200.872" x2="507.246" y2="425.279" gradientUnits="userSpaceOnUse">
            <stop stop-color="white"/>
            <stop offset="1" stop-color="#C2D5FF"/>
        </linearGradient>
        <linearGradient id="paint1_linear_105_955" x1="275.33" y1="289.421" x2="354.277" y2="334.574" gradientUnits="userSpaceOnUse">
            <stop stop-color="white"/>
            <stop offset="1" stop-color="#C2D5FF"/>
        </linearGradient>
        <linearGradient id="paint2_linear_105_955" x1="129.464" y1="208.937" x2="492.827" y2="416.76" gradientUnits="userSpaceOnUse">
            <stop stop-color="white"/>
            <stop offset="1" stop-color="#C2D5FF"/>
        </linearGradient>
        <linearGradient id="paint3_linear_105_955" x1="144.042" y1="217.002" x2="478.409" y2="408.242" gradientUnits="userSpaceOnUse">
            <stop stop-color="white"/>
            <stop offset="1" stop-color="#C2D5FF"/>
        </linearGradient>
        <linearGradient id="paint4_linear_105_955" x1="158.619" y1="225.065" x2="463.992" y2="399.721" gradientUnits="userSpaceOnUse">
            <stop stop-color="white"/>
            <stop offset="1" stop-color="#C2D5FF"/>
        </linearGradient>
        <linearGradient id="paint5_linear_105_955" x1="173.199" y1="233.128" x2="449.578" y2="391.201" gradientUnits="userSpaceOnUse">
            <stop stop-color="white"/>
            <stop offset="1" stop-color="#C2D5FF"/>
        </linearGradient>
        <linearGradient id="paint6_linear_105_955" x1="187.778" y1="241.189" x2="435.504" y2="382.874" gradientUnits="userSpaceOnUse">
            <stop stop-color="white"/>
            <stop offset="1" stop-color="#C2D5FF"/>
        </linearGradient>
        <linearGradient id="paint7_linear_105_955" x1="202.358" y1="249.248" x2="421.835" y2="374.776" gradientUnits="userSpaceOnUse">
            <stop stop-color="white"/>
            <stop offset="1" stop-color="#C2D5FF"/>
        </linearGradient>
        <linearGradient id="paint8_linear_105_955" x1="216.941" y1="257.304" x2="408.193" y2="366.69" gradientUnits="userSpaceOnUse">
            <stop stop-color="white"/>
            <stop offset="1" stop-color="#C2D5FF"/>
        </linearGradient>
        <linearGradient id="paint9_linear_105_955" x1="231.526" y1="265.355" x2="394.586" y2="358.617" gradientUnits="userSpaceOnUse">
            <stop stop-color="white"/>
            <stop offset="1" stop-color="#C2D5FF"/>
        </linearGradient>
        <linearGradient id="paint10_linear_105_955" x1="246.116" y1="273.398" x2="381.037" y2="350.566" gradientUnits="userSpaceOnUse">
            <stop stop-color="white"/>
            <stop offset="1" stop-color="#C2D5FF"/>
        </linearGradient>
        <linearGradient id="paint11_linear_105_955" x1="260.714" y1="281.426" x2="367.577" y2="342.546" gradientUnits="userSpaceOnUse">
            <stop stop-color="white"/>
            <stop offset="1" stop-color="#C2D5FF"/>
        </linearGradient>
    </defs>
</svg>
