<svg width="410" height="250" viewBox="0 0 410 250" fill="none" xmlns="http://www.w3.org/2000/svg">
    <path d="M-66.5356 26.9802C-117.956 -72.677 -12.0715 -106.166 72.6854 -90.6196C121.673 -83.7584 140.844 -141.131 201.538 -132.593C262.232 -124.055 208.101 -45.6212 301.341 -30.7926C394.581 -15.9639 383.428 140.372 308.345 157.92C233.261 175.469 259.202 195.921 195.684 268.521C132.166 341.121 -11.4906 288.983 2.62133 199.087C16.7332 109.191 -10.8725 134.861 -66.5356 26.9802Z" stroke="url(#paint0_linear_105_997)"/>
    <path d="M113.128 75.1994C107.642 65.8311 120.005 46.2613 134.149 50.5331C147.101 54.4449 158.031 47.6751 166.442 48.8651C188.585 51.9979 181.845 57.5345 192.904 64.4569C206.36 72.8806 217.629 99.974 191.897 105.38C170.734 109.826 179.226 118.775 164.335 126.659C149.445 134.543 129.844 130.566 125.556 110.155C123.945 102.49 122.264 90.8026 113.128 75.1994Z" stroke="url(#paint1_linear_105_997)"/>
    <path d="M-50.3129 30.8497C-97.5571 -60.5995 -0.17488 -92.8231 78.1627 -78.3016C123.874 -71.7085 142.296 -124.481 198.237 -116.611C255.427 -108.564 205.604 -36.7576 291.373 -22.6476C377.36 -8.40124 368.245 136.185 297.648 152.63C227.466 168.987 251.821 188.394 192.724 255.11C133.627 321.827 1.24775 274.068 13.6869 190.488C26.3695 108.068 1.12051 130.341 -50.3129 30.8497Z" stroke="url(#paint2_linear_105_997)"/>
    <path d="M-34.0895 34.7208C-77.1578 -48.5202 11.7224 -79.4785 83.6406 -65.9819C126.076 -59.657 143.749 -107.829 194.937 -100.627C248.622 -93.072 203.107 -27.8922 281.405 -14.501C360.139 -0.836861 353.063 132 286.952 147.341C221.672 162.507 244.441 180.868 189.764 241.701C135.088 302.535 13.9867 259.154 24.7531 181.891C36.0064 106.946 13.1141 125.824 -34.0895 34.7208Z" stroke="url(#paint3_linear_105_997)"/>
    <path d="M-17.8662 38.5909C-56.7586 -36.4421 23.6196 -66.1349 89.1185 -53.6634C128.278 -47.6066 145.202 -91.1784 191.637 -84.6444C241.817 -77.5806 200.611 -19.0278 271.438 -6.35544C342.919 6.72642 337.881 127.814 276.256 142.051C215.878 156.026 237.06 173.341 186.805 228.291C136.549 283.241 26.7255 244.238 35.8192 173.293C45.6432 105.823 25.1077 121.305 -17.8662 38.5909Z" stroke="url(#paint4_linear_105_997)"/>
    <path d="M-1.64266 42.463C-36.3592 -24.3619 35.517 -52.7894 94.5966 -41.3428C130.48 -35.5541 146.655 -74.5257 188.337 -68.6598C235.012 -62.0874 198.114 -10.1616 261.47 1.79209C325.698 14.2917 322.699 123.63 265.561 136.763C210.085 149.547 229.68 165.816 183.845 214.883C138.01 263.95 39.4646 229.325 46.8855 164.697C55.2803 104.703 37.1015 116.788 -1.64266 42.463Z" stroke="url(#paint5_linear_105_997)"/>
    <path d="M14.6552 46.6872C-15.8854 -11.9296 47.4888 -39.0917 100.149 -28.6701C132.757 -23.1495 148.182 -57.5209 185.111 -52.3229C228.282 -46.2419 195.692 -0.943113 251.577 10.2918C308.552 22.2091 307.591 119.798 254.94 131.828C204.365 143.421 222.375 158.644 180.96 201.827C139.546 245.011 52.278 214.764 58.0263 156.453C64.9917 103.934 49.1697 112.623 14.6552 46.6872Z" stroke="url(#paint6_linear_105_997)"/>
    <path d="M31.0411 51.329C4.67632 0.920277 59.5486 -24.9764 105.789 -15.5798C135.121 -10.3274 149.797 -40.0984 181.973 -35.5685C221.639 -29.9788 193.358 8.69294 241.772 19.2091C291.494 30.5441 292.571 116.384 244.406 127.309C198.734 137.711 215.157 151.889 178.163 189.189C141.169 226.489 65.1795 200.621 69.255 148.626C74.7911 103.583 61.3258 108.876 31.0411 51.329Z" stroke="url(#paint7_linear_105_997)"/>
    <path d="M47.4325 55.9952C25.2436 13.7945 71.6139 -10.8368 111.435 -2.46514C137.491 2.51915 151.418 -22.6517 178.841 -18.7897C215.002 -13.6914 191.03 18.3533 231.972 28.1507C274.441 38.9035 277.557 112.994 233.879 122.816C193.108 132.026 207.945 145.158 175.372 176.575C142.799 207.992 78.0864 186.502 80.4892 140.824C84.596 103.257 73.4875 105.154 47.4325 55.9952Z" stroke="url(#paint8_linear_105_997)"/>
    <path d="M63.8311 60.6931C45.818 26.7006 83.6864 3.33464 117.089 10.6813C139.869 15.3975 153.046 -5.17305 175.716 -1.97908C208.373 2.62784 188.708 28.0455 222.18 37.1242C257.396 47.2947 262.55 109.636 223.358 118.354C187.489 126.373 200.74 138.459 172.587 163.993C144.435 189.527 91.0005 172.415 91.7305 133.054C94.4081 102.962 85.6563 101.463 63.8311 60.6931Z" stroke="url(#paint9_linear_105_997)"/>
    <path d="M80.2412 65.4411C66.4041 39.6567 95.7705 17.5561 122.753 23.8779C142.257 28.3259 154.686 12.3556 172.603 14.8816C201.755 18.9971 186.399 37.7878 212.399 46.1477C240.362 55.7359 247.554 106.328 212.849 113.942C181.882 120.77 193.546 131.81 169.815 151.461C146.083 171.111 103.926 158.378 102.984 125.333C104.232 102.717 97.8367 97.822 80.2412 65.4411Z" stroke="url(#paint10_linear_105_997)"/>
    <path d="M96.6693 70.2626C87.0081 52.6862 107.872 31.851 128.436 37.1478C144.664 41.3277 156.343 29.9576 169.507 31.8156C195.155 35.4398 184.107 47.6034 202.636 55.2446C223.346 64.2505 232.577 103.093 202.358 109.603C176.293 115.241 186.371 125.235 167.06 139.002C147.748 152.769 116.87 144.414 114.254 117.686C114.073 102.546 110.035 94.2546 96.6693 70.2626Z" stroke="url(#paint11_linear_105_997)"/>
    <defs>
        <linearGradient id="paint0_linear_105_997" x1="115.21" y1="-119.556" x2="200.741" y2="287.556" gradientUnits="userSpaceOnUse">
            <stop stop-color="#E9EFFF"/>
            <stop offset="1" stop-color="#C7D8FF"/>
        </linearGradient>
        <linearGradient id="paint1_linear_105_997" x1="152.397" y1="44.9536" x2="169.607" y2="126.869" gradientUnits="userSpaceOnUse">
            <stop stop-color="#E9EFFF"/>
            <stop offset="1" stop-color="#C7D8FF"/>
        </linearGradient>
        <linearGradient id="paint2_linear_105_997" x1="118.575" y1="-104.598" x2="197.785" y2="272.428" gradientUnits="userSpaceOnUse">
            <stop stop-color="#E9EFFF"/>
            <stop offset="1" stop-color="#C7D8FF"/>
        </linearGradient>
        <linearGradient id="paint3_linear_105_997" x1="121.94" y1="-89.6386" x2="194.83" y2="257.302" gradientUnits="userSpaceOnUse">
            <stop stop-color="#E9EFFF"/>
            <stop offset="1" stop-color="#C7D8FF"/>
        </linearGradient>
        <linearGradient id="paint4_linear_105_997" x1="125.307" y1="-74.6808" x2="191.876" y2="242.175" gradientUnits="userSpaceOnUse">
            <stop stop-color="#E9EFFF"/>
            <stop offset="1" stop-color="#C7D8FF"/>
        </linearGradient>
        <linearGradient id="paint5_linear_105_997" x1="128.674" y1="-59.7217" x2="188.923" y2="227.05" gradientUnits="userSpaceOnUse">
            <stop stop-color="#E9EFFF"/>
            <stop offset="1" stop-color="#C7D8FF"/>
        </linearGradient>
        <linearGradient id="paint6_linear_105_997" x1="132.043" y1="-44.764" x2="186.046" y2="212.277" gradientUnits="userSpaceOnUse">
            <stop stop-color="#E9EFFF"/>
            <stop offset="1" stop-color="#C7D8FF"/>
        </linearGradient>
        <linearGradient id="paint7_linear_105_997" x1="135.415" y1="-29.8067" x2="183.259" y2="197.923" gradientUnits="userSpaceOnUse">
            <stop stop-color="#E9EFFF"/>
            <stop offset="1" stop-color="#C7D8FF"/>
        </linearGradient>
        <linearGradient id="paint8_linear_105_997" x1="138.789" y1="-14.8492" x2="180.481" y2="183.594" gradientUnits="userSpaceOnUse">
            <stop stop-color="#E9EFFF"/>
            <stop offset="1" stop-color="#C7D8FF"/>
        </linearGradient>
        <linearGradient id="paint9_linear_105_997" x1="142.169" y1="0.105872" x2="177.715" y2="169.298" gradientUnits="userSpaceOnUse">
            <stop stop-color="#E9EFFF"/>
            <stop offset="1" stop-color="#C7D8FF"/>
        </linearGradient>
        <linearGradient id="paint10_linear_105_997" x1="145.557" y1="15.0601" x2="174.968" y2="155.055" gradientUnits="userSpaceOnUse">
            <stop stop-color="#E9EFFF"/>
            <stop offset="1" stop-color="#C7D8FF"/>
        </linearGradient>
        <linearGradient id="paint11_linear_105_997" x1="148.96" y1="30.0101" x2="172.256" y2="140.892" gradientUnits="userSpaceOnUse">
            <stop stop-color="#E9EFFF"/>
            <stop offset="1" stop-color="#C7D8FF"/>
        </linearGradient>
    </defs>
</svg>
