<?xml version="1.0" encoding="UTF-8"?>
<!DOCTYPE svg PUBLIC "-//W3C//DTD SVG 1.1//EN" "http://www.w3.org/Graphics/SVG/1.1/DTD/svg11.dtd">
<!-- Creator: CorelDRAW -->
<svg xmlns="http://www.w3.org/2000/svg" xml:space="preserve" width="63.7503mm" height="33.5089mm" version="1.1" style="shape-rendering:geometricPrecision; text-rendering:geometricPrecision; image-rendering:optimizeQuality; fill-rule:evenodd; clip-rule:evenodd"
viewBox="0 0 349.2 183.55"
 xmlns:xlink="http://www.w3.org/1999/xlink"
 xmlns:xodm="http://www.corel.com/coreldraw/odm/2003">
 <defs>
  <style type="text/css">
   <![CDATA[
    .fil4 {fill:#1565B8;fill-rule:nonzero}
    .fil3 {fill:#26347E;fill-rule:nonzero}
    .fil0 {fill:#2A2A72;fill-rule:nonzero}
    .fil8 {fill:url(#id0);fill-rule:nonzero}
    .fil12 {fill:url(#id1);fill-rule:nonzero}
    .fil1 {fill:url(#id2);fill-rule:nonzero}
    .fil5 {fill:url(#id3);fill-rule:nonzero}
    .fil7 {fill:url(#id4);fill-rule:nonzero}
    .fil9 {fill:url(#id5);fill-rule:nonzero}
    .fil15 {fill:url(#id6);fill-rule:nonzero}
    .fil11 {fill:url(#id7);fill-rule:nonzero}
    .fil13 {fill:url(#id8);fill-rule:nonzero}
    .fil6 {fill:url(#id9);fill-rule:nonzero}
    .fil10 {fill:url(#id10);fill-rule:nonzero}
    .fil14 {fill:url(#id11);fill-rule:nonzero}
    .fil2 {fill:url(#id12);fill-rule:nonzero}
   ]]>
  </style>
  <linearGradient id="id0" gradientUnits="userSpaceOnUse" x1="155.91" y1="118.69" x2="169.71" y2="134.91">
   <stop offset="0" style="stop-opacity:1; stop-color:#009FFD"/>
   <stop offset="1" style="stop-opacity:1; stop-color:#2A2A72"/>
  </linearGradient>
  <linearGradient id="id1" gradientUnits="userSpaceOnUse" xlink:href="#id0" x1="88.28" y1="129.53" x2="96.34" y2="139.02">
  </linearGradient>
  <linearGradient id="id2" gradientUnits="userSpaceOnUse" xlink:href="#id0" x1="133.68" y1="82.75" x2="147.48" y2="98.96">
  </linearGradient>
  <linearGradient id="id3" gradientUnits="userSpaceOnUse" xlink:href="#id0" x1="236.84" y1="55.09" x2="228.77" y2="64.57">
  </linearGradient>
  <linearGradient id="id4" gradientUnits="userSpaceOnUse" xlink:href="#id0" x1="197.16" y1="55.09" x2="205.23" y2="64.57">
  </linearGradient>
  <linearGradient id="id5" gradientUnits="userSpaceOnUse" xlink:href="#id0" x1="115.67" y1="154.16" x2="101.87" y2="137.95">
  </linearGradient>
  <linearGradient id="id6" gradientUnits="userSpaceOnUse" xlink:href="#id0" x1="90.67" y1="4.96" x2="103.24" y2="-9.81">
  </linearGradient>
  <linearGradient id="id7" gradientUnits="userSpaceOnUse" xlink:href="#id0" x1="60.42" y1="127.76" x2="68.48" y2="118.27">
  </linearGradient>
  <linearGradient id="id8" gradientUnits="userSpaceOnUse" xlink:href="#id0" x1="63.37" y1="76.89" x2="55.3" y2="67.41">
  </linearGradient>
  <linearGradient id="id9" gradientUnits="userSpaceOnUse" xlink:href="#id0" x1="219.16" y1="53.31" x2="211.09" y2="43.83">
  </linearGradient>
  <linearGradient id="id10" gradientUnits="userSpaceOnUse" xlink:href="#id0" x1="36.88" y1="107.01" x2="28.81" y2="116.5">
  </linearGradient>
  <linearGradient id="id11" gradientUnits="userSpaceOnUse" xlink:href="#id0" x1="23.7" y1="76.89" x2="31.77" y2="67.41">
  </linearGradient>
  <linearGradient id="id12" gradientUnits="userSpaceOnUse" xlink:href="#id0" x1="163.91" y1="79.71" x2="177.7" y2="63.5">
  </linearGradient>
 </defs>
 <g id="Слой_x0020_1">
  <metadata id="CorelCorpID_0Corel-Layer"/>
  <g id="_1669098706240">
   <g>
    <g>
     <g>
      <g>
       <polygon class="fil0" points="128.67,61.98 104.86,42.73 128.67,42.73 "/>
       <polygon class="fil1" points="128.67,100.48 152.49,81.23 128.67,81.23 "/>
       <polygon class="fil2" points="158.9,61.98 182.71,81.23 158.9,81.23 "/>
       <polygon class="fil3" points="206.53,100.48 182.71,81.23 206.53,81.23 "/>
       <polygon class="fil4" points="206.53,100.48 230.34,81.23 206.53,81.23 "/>
      </g>
      <g>
       <polygon class="fil0" points="239.77,42.94 253.7,31.68 239.77,31.68 "/>
       <polygon class="fil5" points="239.77,65.46 225.84,54.2 239.77,54.2 "/>
       <polygon class="fil6" points="222.09,42.94 208.16,54.2 222.09,54.2 "/>
       <polygon class="fil7" points="194.23,65.46 208.16,54.2 194.23,54.2 "/>
       <polygon class="fil4" points="194.23,65.46 180.3,54.2 194.23,54.2 "/>
      </g>
     </g>
     <g>
      <g>
       <polygon class="fil8" points="150.9,136.43 174.72,117.18 150.9,117.18 "/>
       <polygon class="fil3" points="150.9,174.93 127.09,155.68 150.9,155.68 "/>
       <polygon class="fil9" points="120.68,136.43 96.86,155.68 120.68,155.68 "/>
       <polygon class="fil0" points="62.38,183.55 96.86,155.68 62.38,155.68 "/>
       <polygon class="fil4" points="62.38,183.55 27.9,155.68 62.38,155.68 "/>
      </g>
      <g>
       <polygon class="fil10" points="39.81,117.39 25.88,106.13 39.81,106.13 "/>
       <polygon class="fil0" points="39.81,139.91 53.74,128.65 39.81,128.65 "/>
       <polygon class="fil11" points="57.48,117.39 71.41,128.65 57.48,128.65 "/>
       <polygon class="fil3" points="85.34,139.91 71.41,128.65 85.34,128.65 "/>
       <polygon class="fil12" points="85.34,139.91 99.28,128.65 85.34,128.65 "/>
      </g>
     </g>
    </g>
    <g>
     <g>
      <g>
       <polygon class="fil4" points="-0,58.22 9.25,50.75 -0,50.75 "/>
       <polygon class="fil4" points="33.06,31.49 9.25,50.75 33.06,50.75 "/>
       <polygon class="fil3" points="33.06,31.49 56.88,50.75 33.06,50.75 "/>
      </g>
      <g>
       <polygon class="fil3" points="66.3,89.04 80.23,100.3 66.3,100.3 "/>
       <polygon class="fil13" points="66.3,66.52 52.37,77.78 66.3,77.78 "/>
       <polygon class="fil3" points="48.63,89.04 34.7,77.78 48.63,77.78 "/>
       <polygon class="fil14" points="20.77,66.52 34.7,77.78 20.77,77.78 "/>
       <polygon class="fil4" points="20.77,66.52 6.84,77.78 20.77,77.78 "/>
      </g>
     </g>
     <g>
      <g>
       <polygon class="fil4" points="-0,13.79 1.25,14.8 -0,14.8 "/>
      </g>
     </g>
    </g>
   </g>
   <g>
    <g>
     <g>
      <g>
       <polygon class="fil0" points="58.57,23.89 80.27,6.35 58.57,6.35 "/>
       <polygon class="fil15" points="99.95,0 107.8,6.35 86.1,6.35 86.1,0 "/>
       <polygon class="fil3" points="139.22,31.75 107.8,6.35 139.22,6.35 "/>
       <polygon class="fil3" points="139.22,31.75 170.64,6.35 139.22,6.35 "/>
      </g>
     </g>
    </g>
    <g>
     <g>
      <polygon class="fil3" points="305.88,54.04 282.65,82.78 282.65,54.04 "/>
      <polygon class="fil3" points="349.2,50.16 329.11,25.31 329.11,54.05 349.2,54.05 "/>
      <polygon class="fil0" points="305.88,17.58 320.08,0 329.11,0 329.11,17.58 "/>
     </g>
    </g>
   </g>
  </g>
 </g>
</svg>
