<?xml version="1.0" encoding="UTF-8"?>
<!DOCTYPE svg PUBLIC "-//W3C//DTD SVG 1.1//EN" "http://www.w3.org/Graphics/SVG/1.1/DTD/svg11.dtd">
<!-- Creator: CorelDRAW -->
<svg xmlns="http://www.w3.org/2000/svg" xml:space="preserve" width="63.7503mm" height="33.5089mm" version="1.1" style="shape-rendering:geometricPrecision; text-rendering:geometricPrecision; image-rendering:optimizeQuality; fill-rule:evenodd; clip-rule:evenodd"
viewBox="0 0 320.36 168.39"
 xmlns:xlink="http://www.w3.org/1999/xlink"
 xmlns:xodm="http://www.corel.com/coreldraw/odm/2003">
 <defs>
  <style type="text/css">
   <![CDATA[
    .fil0 {fill:#E6E6E6;fill-rule:nonzero}
   ]]>
  </style>
 </defs>
 <g id="Слой_x0020_1">
  <metadata id="CorelCorpID_0Corel-Layer"/>
  <g id="_1539453103616">
   <g>
    <g>
     <g>
      <g>
       <polygon class="fil0" points="118.05,56.86 96.2,39.2 118.05,39.2 "/>
       <polygon class="fil0" points="118.05,92.18 139.9,74.52 118.05,74.52 "/>
       <polygon class="fil0" points="145.77,56.86 167.62,74.52 145.77,74.52 "/>
       <polygon class="fil0" points="189.47,92.18 167.62,74.52 189.47,74.52 "/>
       <polygon class="fil0" points="189.47,92.18 211.32,74.52 189.47,74.52 "/>
      </g>
      <g>
       <polygon class="fil0" points="219.97,39.39 232.75,29.06 219.97,29.06 "/>
       <polygon class="fil0" points="219.97,60.05 207.19,49.72 219.97,49.72 "/>
       <polygon class="fil0" points="203.75,39.39 190.97,49.72 203.75,49.72 "/>
       <polygon class="fil0" points="178.19,60.05 190.97,49.72 178.19,49.72 "/>
       <polygon class="fil0" points="178.19,60.05 165.41,49.72 178.19,49.72 "/>
      </g>
     </g>
     <g>
      <g>
       <polygon class="fil0" points="138.44,125.16 160.29,107.5 138.44,107.5 "/>
       <polygon class="fil0" points="138.44,160.48 116.59,142.82 138.44,142.82 "/>
       <polygon class="fil0" points="110.71,125.16 88.86,142.82 110.71,142.82 "/>
       <polygon class="fil0" points="57.23,168.39 88.86,142.82 57.23,142.82 "/>
       <polygon class="fil0" points="57.23,168.39 25.6,142.82 57.23,142.82 "/>
      </g>
      <g>
       <polygon class="fil0" points="36.52,107.69 23.74,97.36 36.52,97.36 "/>
       <polygon class="fil0" points="36.52,128.35 49.3,118.02 36.52,118.02 "/>
       <polygon class="fil0" points="52.74,107.69 65.52,118.02 52.74,118.02 "/>
       <polygon class="fil0" points="78.3,128.35 65.52,118.02 78.3,118.02 "/>
       <polygon class="fil0" points="78.3,128.35 91.08,118.02 78.3,118.02 "/>
      </g>
     </g>
    </g>
    <g>
     <g>
      <g>
       <polygon class="fil0" points="-0,53.41 8.48,46.55 -0,46.55 "/>
       <polygon class="fil0" points="30.33,28.89 8.48,46.56 30.33,46.56 "/>
       <polygon class="fil0" points="30.33,28.89 52.18,46.56 30.33,46.56 "/>
      </g>
      <g>
       <polygon class="fil0" points="60.83,81.68 73.61,92.01 60.83,92.01 "/>
       <polygon class="fil0" points="60.83,61.02 48.05,71.35 60.83,71.35 "/>
       <polygon class="fil0" points="44.61,81.68 31.83,71.35 44.61,71.35 "/>
       <polygon class="fil0" points="19.05,61.02 31.83,71.35 19.05,71.35 "/>
       <polygon class="fil0" points="19.05,61.02 6.27,71.35 19.05,71.35 "/>
      </g>
     </g>
     <g>
      <g>
       <polygon class="fil0" points="-0,12.65 1.15,13.58 -0,13.58 "/>
      </g>
     </g>
    </g>
   </g>
   <g>
    <g>
     <g>
      <g>
       <polygon class="fil0" points="53.73,21.92 73.64,5.82 53.73,5.82 "/>
       <polygon class="fil0" points="91.7,0 98.9,5.82 78.99,5.82 78.99,0 "/>
       <polygon class="fil0" points="127.73,29.12 98.9,5.82 127.73,5.82 "/>
       <polygon class="fil0" points="127.73,29.12 156.55,5.82 127.73,5.82 "/>
      </g>
     </g>
    </g>
    <g>
     <g>
      <polygon class="fil0" points="280.62,49.58 259.3,75.95 259.3,49.58 "/>
      <polygon class="fil0" points="320.36,46.02 301.93,23.22 301.93,49.58 320.36,49.58 "/>
      <polygon class="fil0" points="280.62,16.12 293.65,0 301.93,0 301.93,16.12 "/>
     </g>
    </g>
   </g>
  </g>
 </g>
</svg>
