<svg width="1097" height="1097" viewBox="0 0 1097 1097" fill="none" xmlns="http://www.w3.org/2000/svg">
<rect width="1097" height="1097" fill="#FFD700"/>
<g transform="translate(0.000000,1097.000000) scale(0.100000,-0.100000)" fill="#000000" stroke="none">
    <path d="M3580 7200 l0 -379 1203 -3 c1135 -3 1206 -5 1267 -22 315 -90 532-339 571-657 45-376 -229-744 -613-823 -66-14 -178-16 -778-16 l-700 0 0 -385 0 -385 690 0 c413 0 730 4 788 10 703 76 1271 621 1372 1315 12 89 13 319 0 410 -66 465 -336 868 -743 1111 -153 91 -376 167 -561 193 -52 7 -477 11 -1287 11 l-1209 0 0 -380z"/>
    <path d="M3853 6616 c-108 -35 -205 -125 -244 -224 -17 -43 -23 -79 -23 -147 -1 -81 2 -97 31 -157 38 -81 102 -146 181 -185 52 -26 67 -28 167 -28 100 0 115 3 166 27 235 116 288 429 104 614 -74 74 -149 107 -255 111 -53 2 -101 -2 -127 -11z"/>
    <path d="M3580 5105 l0 -575 383 2 382 3 0 570 0 570 -382 3 -383 2 0 -575z"/>
    <path d="M2224 4153 c-12 -2 -36 -20 -54 -38 -29 -30 -34 -42 -34 -82 0 -104 93 -163 188 -118 91 43 85 191 -9 231 -34 14 -50 15 -91 7z"/>
    <path d="M2465 4147 c-3 -6 -4 -179 -3 -382 l3 -370 365 0 365 0 65 32 c102 49 163 116 200 220 31 85 26 202 -12 285 -52 112 -157 195 -277 218 -82 15 -700 13 -706 -3z m679 -261 c89 -37 104 -154 28 -211 -25 -18 -45 -20 -239 -23 l-213 -3 0 125 0 126 195 0 c144 0 204 -4 229 -14z"/>
    <path d="M3805 4146 c-356 -86 -407 -563 -77 -719 l67 -32 363 -3 362 -3 0 195 0 196 -125 0 -125 0 0 -65 0 -65 -206 0 c-234 0 -255 6 -289 77 -15 30 -15 42 -5 76 14 47 49 82 91 91 18 3 173 6 345 6 l314 0 0 130 0 130 -332 -1 c-225 0 -349 -5 -383 -13z"/>
    <path d="M4600 3775 l0 -385 125 0 125 0 0 65 0 65 154 0 154 0 63 -65 64 -66 165 3 165 3 -77 79 c-43 43 -78 82 -78 86 0 4 12 13 26 20 67 37 126 152 128 250 2 158 -100 288 -252 319 -33 7 -189 11 -407 11 l-355 0 0 -385z m735 100 c29 -28 31 -42 9 -73 -15 -22 -18 -22 -255 -22 l-239 0 0 60 0 60 230 0 231 0 24 -25z"/>
    <path d="M5950 4144 c-171 -45 -282 -190 -284 -369 -1 -136 53 -242 164 -317 82 -56 145 -68 345 -68 232 0 291 17 391 112 32 30 62 72 80 111 26 55 29 73 29 162 0 93 -2 105 -33 167 -53 109 -155 186 -274 208 -79 15 -354 11 -418 -6z m394 -258 c89 -37 104 -154 28 -211 -24 -18 -46 -20 -195 -23 -158 -3 -169 -2 -197 18 -82 58 -74 177 13 215 45 20 305 20 351 1z"/>
    <path d="M6732 3918 l3 -244 33 -66 c40 -82 119 -157 200 -190 53 -22 71 -23 267 -23 183 0 217 2 262 19 114 43 209 147 238 262 12 47 15 108 13 270 l-3 209 -127 3 -128 3 0 -206 c0 -229 -5 -250 -63 -285 -28 -18 -51 -20 -191 -20 -149 0 -162 1 -193 23 -18 12 -36 29 -40 37 -5 8 -10 112 -13 230 l-5 215 -128 3 -128 3 3 -243z"/>
    <path d="M7820 3776 l0 -386 130 0 130 0 0 65 0 65 250 0 c297 0 329 7 416 94 157 158 109 419 -95 515 l-56 26 -387 3 -388 3 0 -385z m746 100 c19 -26 18 -55 -3 -78 -15 -16 -36 -18 -250 -18 l-233 0 0 61 0 60 236 -3 c220 -3 237 -4 250 -22z"/>
    <path d="M2134 3767 c-2 -7 -3 -94 -2 -192 l3 -180 128 -3 127 -3 0 196 0 195 -125 0 c-93 0 -127 -3 -131 -13z"/>
</g>
</svg>
